<?xml version="1.0" encoding="iso-8859-1"?>
<!-- Uploaded to: SVG Repo, www.svgrepo.com, Generator: SVG Repo Mixer Tools -->
<svg fill="#000000" height="800px" width="800px" version="1.1" id="Layer_1" xmlns="http://www.w3.org/2000/svg" xmlns:xlink="http://www.w3.org/1999/xlink" 
	 viewBox="0 0 512.001 512.001" xml:space="preserve">
<g>
	<g>
		<g>
			<path d="M465.432,63.989c-2.471-2.027-5.719-2.838-8.855-2.21l-45.135,9.026c-0.027,0.005-0.054,0.011-0.082,0.017l-34.272,6.854
				l45.024-60.649c3.513-4.731,2.525-11.412-2.206-14.924c-4.73-3.511-11.41-2.525-14.924,2.206l-58.348,78.593H95.565
				c-29.169,0-52.9,23.731-52.9,52.899V243.34c0,29.168,23.731,52.899,52.9,52.899h11.101v53.334
				c0,5.892,4.777,10.667,10.667,10.667h53.332v141.094c0,5.892,4.777,10.667,10.667,10.667h42.667
				c5.892,0,10.667-4.776,10.667-10.667V360.24h53.332c5.891,0,10.667-4.776,10.667-10.667v-53.334h47.967l58.348,78.594
				c2.094,2.819,5.312,4.309,8.573,4.309c2.21,0,4.44-0.685,6.35-2.103c4.731-3.512,5.719-10.194,2.206-14.924l-45.025-60.649
				l79.491,15.897c0.694,0.139,1.396,0.207,2.092,0.207c2.444,0,4.84-0.842,6.763-2.418c2.471-2.026,3.904-5.053,3.904-8.249V72.238
				C469.337,69.042,467.903,66.015,465.432,63.989z M213.333,490.665h-21.332V360.24h21.332V490.665z M277.332,338.905H224h-42.667
				h-53.332v-42.667h149.33V338.905z M341.334,274.902H288H117.333H95.565c-17.405,0.001-31.565-14.159-31.565-31.563V135.801
				c0-17.404,14.159-31.564,31.565-31.564h245.768V274.902z M448.002,293.891l-85.333-17.065v-174.51l40.211-8.042v26.649
				c0,5.892,4.777,10.667,10.667,10.667c5.892,0,10.667-4.776,10.667-10.667V90.007l23.787-4.757V293.891z"/>
			<path d="M148.232,157.57h79.324c5.892,0,10.667-4.776,10.667-10.667c0-5.892-4.776-10.667-10.667-10.667h-79.324
				c-5.891,0-10.667,4.776-10.667,10.667C137.564,152.794,142.341,157.57,148.232,157.57z"/>
			<path d="M117.333,157.574h0.254c5.892,0,10.667-4.776,10.667-10.667c0-5.892-4.776-10.667-10.667-10.667h-0.254
				c-5.891,0-10.667,4.776-10.667,10.667C106.666,152.799,111.443,157.574,117.333,157.574z"/>
			<path d="M117.333,200.236h110.222c5.892,0,10.667-4.776,10.667-10.667c0-5.892-4.776-10.667-10.667-10.667H117.333
				c-5.891,0-10.667,4.776-10.667,10.667C106.666,195.46,111.443,200.236,117.333,200.236z"/>
			<path d="M117.333,242.901h110.224c5.892,0,10.667-4.776,10.667-10.667c0-5.892-4.776-10.667-10.667-10.667H117.333
				c-5.891,0-10.667,4.776-10.667,10.667C106.666,238.125,111.443,242.901,117.333,242.901z"/>
			<path d="M413.551,140.897c-5.891,0-10.667,4.776-10.667,10.667v0.256c0,5.892,4.777,10.667,10.667,10.667
				c5.892,0,10.667-4.776,10.667-10.667v-0.256C424.219,145.674,419.443,140.897,413.551,140.897z"/>
		</g>
	</g>
</g>
</svg>