<?xml version="1.0" encoding="iso-8859-1"?>
<!-- Uploaded to: SVG Repo, www.svgrepo.com, Generator: SVG Repo Mixer Tools -->
<svg fill="#000000" height="800px" width="800px" version="1.1" id="Layer_1" xmlns="http://www.w3.org/2000/svg" xmlns:xlink="http://www.w3.org/1999/xlink" 
	 viewBox="0 0 512 512" xml:space="preserve">
<g>
	<g>
		<path d="M487.8,375.585L415.326,194.87c-3.435-8.566-11.736-14.182-20.966-14.182h-70.592V112.92
			c0-12.475-10.113-22.589-22.589-22.589h-22.589V22.589C278.589,10.114,268.477,0,256,0c-12.474,0-22.589,10.114-22.589,22.589
			v67.741h-22.589c-12.474,0-22.589,10.114-22.589,22.589v67.768h-70.592c-9.23,0-17.531,5.616-20.966,14.182L24.199,375.585
			c-2.791,6.959-1.947,14.852,2.256,21.062c4.2,6.212,11.212,9.935,18.71,9.935h52.873h45.293h225.336h45.459h52.709
			c7.5,0,14.51-3.723,18.713-9.935C489.747,390.439,490.592,382.544,487.8,375.585z"/>
	</g>
</g>
<g>
	<g>
		<path d="M156.15,451.762C175.119,487.554,212.75,512,256,512s80.881-24.446,99.853-60.238H156.15z"/>
	</g>
</g>
</svg>