<svg xmlns="http://www.w3.org/2000/svg" xmlns:xlink="http://www.w3.org/1999/xlink" version="1.1" x="0px" y="0px" viewBox="0 0 512 640" style="enable-background:new 0 0 512 512;" xml:space="preserve"><path d="M220.12,265.48l-36.68,18.62c-9.35,4.76-19.33-2.49-17.74-12.84l5.87-41.36l-29.65-29.65c-7.88-7.85-3.57-19.19,7.09-21.03  l40.65-7.09l19.08-37.53c4.76-9.35,18.03-9.35,22.76,0l19.11,37.53l40.62,7.09c10.66,1.84,14.97,13.18,7.11,21.03l-29.65,29.65  l5.87,41.36c1.59,10.35-8.39,17.6-17.77,12.84L220.12,265.48z M222.13,257.46l38.27,19.5c3.69,1.87,6.83-0.54,6.26-4.59l-6.18-43.28  c-0.2-1.36,0.31-2.66,1.25-3.54l31.07-31.01c3.09-3.12,1.53-6.66-2.86-7.43l-42.66-7.46c-1.3-0.2-2.35-1.02-2.89-2.13l-20.01-39.29  c-1.84-3.6-6.66-3.6-8.5,0l-20.01,39.29c-0.54,1.11-1.59,1.93-2.89,2.13l-42.69,7.46c-4.37,0.77-5.92,4.31-2.83,7.43l31.04,31.01  c0.96,0.88,1.47,2.18,1.28,3.54l-6.18,43.28c-0.57,4.05,2.55,6.46,6.26,4.59l38.27-19.5C219.1,256.86,221.14,256.86,222.13,257.46  L222.13,257.46z M305.16,208.56c0.2-18.14,13.92-33.22,31.78-35.29V64.68c0-13.89-11.37-25.26-25.23-25.26h-193.1  c-13.86,0-25.23,11.37-25.23,25.26v108.6c29.54,3.43,42.52,39.71,21.29,61.06c-5.58,5.61-13.01,9.38-21.29,10.35v108.6  c0,13.89,11.37,25.26,25.23,25.26h157.83c-9.01-38.21,0.26-68,9.41-97.34c5.56-17.89,11.08-35.6,12.1-54.82  C298.33,219.22,301.02,212.93,305.16,208.56L305.16,208.56z M336.14,424.14h44.82c-8.11-52.89,63.58-140.85,27.38-216.37  c-12.59-26.28-43.88-62.82-63.41-85.29v49.92c32.26,43.23,40.62,89.97-0.94,130.42c-0.74,1.39-7.63,3.4-6.75-3.37  c0.68-5.22,1.36-9.67,2.01-14.14c4.25-28.09,8.5-56.41-10.09-70.87c-12.16-9.47-22.54-0.85-23.24,12.33  c-3.43,64.57-53.18,107.97-2.27,197.35L336.14,424.14z M386.4,432.13h-98.42c-2.75,0-4.99,2.27-4.99,5.02v30.44  c0,2.75,2.24,4.99,4.99,4.99h106.81c2.72,0,4.99-2.24,4.99-4.99v-30.44c0-2.75-2.27-5.02-4.99-5.02H386.4z M130.2,318.18  c-5.27,0-5.27-8.02,0-8.02h86.4c5.27,0,5.27,8.02,0,8.02H130.2z M130.2,345.48c-5.27,0-5.27-7.99,0-7.99h86.4  c5.27,0,5.27,7.99,0,7.99H130.2z M131.17,100.87h7.99v7.99h-7.99V100.87z M147.16,100.87h7.99v7.99h-7.99V100.87z M163.14,100.87  h8.02v7.99h-8.02V100.87z M179.16,100.87h7.99v7.99h-7.99V100.87z M195.15,100.87h8.02v7.99h-8.02V100.87z M211.16,100.87h7.99v7.99  h-7.99V100.87z M227.15,100.87h7.99v7.99h-7.99V100.87z M243.17,100.87h7.99v7.99h-7.99V100.87z M259.15,100.87h7.99v7.99h-7.99  V100.87z M275.17,100.87h7.99v7.99h-7.99V100.87z M291.16,100.87h7.99v7.99h-7.99V100.87z M307.14,100.87h8.02v7.99h-8.02V100.87z   M323.16,100.87h7.99v7.99h-7.99V100.87z M99.17,100.87h7.99v7.99h-7.99V100.87z M115.15,100.87h7.99v7.99h-7.99V100.87z"/><text x="0" y="527" fill="#000000" font-size="5px" font-weight="bold" font-family="'Helvetica Neue', Helvetica, Arial-Unicode, Arial, Sans-serif">Created by Besokpagi</text><text x="0" y="532" fill="#000000" font-size="5px" font-weight="bold" font-family="'Helvetica Neue', Helvetica, Arial-Unicode, Arial, Sans-serif">from the Noun Project</text></svg>