<svg xmlns="http://www.w3.org/2000/svg" xmlns:xlink="http://www.w3.org/1999/xlink" version="1.1" x="0px" y="0px" viewBox="0 0 512 640" enable-background="new 0 0 512 512" xml:space="preserve"><g><g><g><g><path d="M391.663,435.242c-66.008,0-119.702-53.694-119.702-119.702c0-66.003,53.694-119.702,119.702-119.702      c66.007,0,119.701,53.698,119.701,119.702C511.364,381.548,457.67,435.242,391.663,435.242z M391.663,203.818      c-61.604,0-111.722,50.117-111.722,111.722s50.117,111.723,111.722,111.723s111.722-50.118,111.722-111.723      S453.268,203.818,391.663,203.818z"/></g></g><g><g><g><path d="M422.204,362.532h-61.075c-1.729,0-3.257-1.114-3.795-2.758l-18.82-58.027c-0.529-1.645,0.047-3.445,1.449-4.458       l49.354-35.845c1.402-1.013,3.288-1.013,4.691,0l49.354,35.845c1.402,1.013,1.979,2.813,1.449,4.458l-18.812,58.027       C425.469,361.418,423.934,362.532,422.204,362.532z M364.028,354.553h55.276l17.028-52.51l-44.67-32.435l-44.662,32.435       L364.028,354.553z"/></g></g><g><g><g><path d="M391.663,268.665c-2.206,0-3.99-1.785-3.99-3.99v-36.706c0-2.206,1.784-3.99,3.99-3.99        c2.205,0,3.989,1.785,3.989,3.99v36.706C395.652,266.88,393.868,268.665,391.663,268.665z"/></g></g><g><g><path d="M391.663,231.959c-0.601,0-1.208-0.132-1.777-0.42l-41.272-20.566c-1.963-0.981-2.773-3.378-1.784-5.35        c0.981-1.964,3.374-2.782,5.354-1.789l41.256,20.566c1.979,0.982,2.774,3.378,1.793,5.35        C394.531,231.149,393.128,231.959,391.663,231.959z"/></g></g><g><g><path d="M391.663,231.959c-1.466,0-2.868-0.81-3.569-2.209c-0.982-1.976-0.188-4.368,1.792-5.354l41.257-20.559        c1.979-0.97,4.372-0.171,5.361,1.793c0.982,1.976,0.172,4.368-1.792,5.354l-41.272,20.559        C392.871,231.827,392.263,231.959,391.663,231.959z"/></g></g></g><g><g><g><path d="M343.174,303.897c-0.404,0-0.826-0.062-1.23-0.195l-34.929-11.369c-2.104-0.679-3.242-2.931-2.564-5.027        c0.679-2.096,2.938-3.249,5.026-2.563l34.929,11.37c2.104,0.686,3.242,2.938,2.564,5.034        C346.416,302.83,344.857,303.897,343.174,303.897z"/></g></g><g><g><path d="M276.1,325.329c-1.006,0-2.019-0.375-2.798-1.139c-1.574-1.543-1.59-4.067-0.047-5.642l32.139-32.802        c1.543-1.574,4.067-1.605,5.642-0.055c1.574,1.543,1.605,4.068,0.062,5.643l-32.154,32.801        C278.164,324.931,277.136,325.329,276.1,325.329z"/></g></g><g><g><path d="M308.246,292.52c-1.949,0-3.647-1.418-3.943-3.397l-6.796-45.477c-0.319-2.179,1.185-4.208,3.366-4.536        c2.214-0.265,4.209,1.181,4.536,3.359l6.78,45.477c0.326,2.174-1.17,4.208-3.352,4.535        C308.635,292.504,308.433,292.52,308.246,292.52z"/></g></g></g><g><g><g><path d="M340.119,390.572c-0.811,0-1.637-0.249-2.338-0.764c-1.784-1.294-2.182-3.788-0.881-5.572l21.572-29.645        c1.285-1.785,3.795-2.175,5.571-0.881c1.784,1.302,2.183,3.795,0.881,5.58l-21.571,29.637        C342.574,390.003,341.358,390.572,340.119,390.572z"/></g></g><g><g><path d="M361.316,431.197c-1.434,0-2.821-0.779-3.538-2.143l-21.189-40.626c-1.021-1.955-0.257-4.363,1.691-5.385        c1.964-1.021,4.364-0.257,5.385,1.691l21.189,40.625c1.013,1.956,0.265,4.364-1.69,5.385        C362.571,431.058,361.939,431.197,361.316,431.197z"/></g></g><g><g><path d="M340.119,390.572c-0.218,0-0.437-0.016-0.662-0.055l-45.216-7.591c-2.174-0.365-3.64-2.423-3.272-4.598        c0.366-2.166,2.361-3.662,4.598-3.273l45.215,7.591c2.175,0.366,3.64,2.424,3.273,4.599        C343.728,389.192,342.036,390.572,340.119,390.572z"/></g></g></g><g><g><g><path d="M443.222,390.564c-1.239,0-2.446-0.569-3.233-1.637l-21.572-29.637c-1.301-1.785-0.903-4.278,0.881-5.58        c1.785-1.286,4.271-0.896,5.572,0.881l21.571,29.637c1.302,1.784,0.904,4.278-0.881,5.572        C444.858,390.315,444.032,390.564,443.222,390.564z"/></g></g><g><g><path d="M443.206,390.564c-1.909,0-3.601-1.38-3.928-3.327c-0.358-2.175,1.106-4.232,3.273-4.599l45.216-7.575        c2.143-0.396,4.224,1.1,4.59,3.281c0.366,2.175-1.099,4.225-3.281,4.59l-45.199,7.575        C443.65,390.549,443.425,390.564,443.206,390.564z"/></g></g><g><g><path d="M422.009,431.213c-0.623,0-1.255-0.14-1.847-0.452c-1.956-1.021-2.704-3.429-1.691-5.385l21.205-40.641        c1.021-1.948,3.414-2.712,5.385-1.691c1.949,1.021,2.713,3.43,1.691,5.385l-21.205,40.642        C424.83,430.434,423.443,431.213,422.009,431.213z"/></g></g></g><g><g><g><path d="M440.159,303.897c-1.676,0-3.25-1.067-3.795-2.751c-0.687-2.097,0.468-4.349,2.556-5.034l34.929-11.386        c2.097-0.67,4.349,0.468,5.026,2.563c0.678,2.089-0.459,4.342-2.563,5.027l-34.913,11.385        C440.985,303.835,440.572,303.897,440.159,303.897z"/></g></g><g><g><path d="M475.08,292.512c-0.188,0-0.39-0.016-0.592-0.039c-2.183-0.327-3.679-2.361-3.352-4.535l6.78-45.454        c0.327-2.175,2.384-3.64,4.535-3.359c2.183,0.328,3.687,2.357,3.366,4.536l-6.795,45.454        C478.727,291.094,477.028,292.512,475.08,292.512z"/></g></g><g><g><path d="M507.227,325.313c-1.037,0-2.065-0.398-2.845-1.193l-32.139-32.801c-1.543-1.574-1.527-4.106,0.047-5.643        c1.59-1.551,4.106-1.52,5.643,0.055l32.139,32.802c1.543,1.574,1.527,4.099-0.047,5.642        C509.245,324.938,508.231,325.313,507.227,325.313z"/></g></g></g></g></g><g><g><g><path d="M209.386,435.227c-9.228,0-18.762-0.639-28.301-2.197c-54.708-8.97-152.85-97.851-179.631-132.974      c-1.336-1.754-1.001-4.255,0.752-5.596c1.75-1.34,4.259-0.997,5.592,0.756c29.45,38.623,125.601,121.907,174.581,129.935      c45.57,7.481,91.367-7.068,100.087-10.054c2.073-0.709,4.356,0.398,5.065,2.479c0.717,2.089-0.39,4.356-2.478,5.073      C277.837,425.119,246.06,435.227,209.386,435.227z"/></g></g><g><g><g><path d="M208.868,419.204c-8.385,0-16.892-0.561-25.203-1.933c-45.698-7.489-145.711-93.447-175.477-132.475       c-1.337-1.754-1.001-4.255,0.752-5.596c1.75-1.341,4.267-0.989,5.592,0.756C42.91,317.169,141.777,402.324,184.958,409.4       c45.216,7.442,96.993-10.046,97.507-10.225c2.073-0.701,4.356,0.39,5.065,2.479c0.717,2.089-0.39,4.356-2.478,5.073       C284.617,406.876,248.102,419.204,208.868,419.204z"/></g></g></g><g><g><path d="M4.634,301.638c-0.534,0-1.079-0.109-1.602-0.335c-2.019-0.889-2.934-3.242-2.046-5.261l6.722-15.274      c0.885-2.011,3.23-2.931,5.257-2.042c2.018,0.889,2.934,3.242,2.045,5.253L8.29,299.253      C7.634,300.749,6.169,301.638,4.634,301.638z"/></g></g><g><g><path d="M11.356,286.363c-0.721,0-1.454-0.195-2.112-0.608c-1.866-1.161-2.435-3.623-1.266-5.494      c31.488-50.386,57.408-64.811,58.495-65.4c3.585-1.188,5.721-0.549,7.01,0.145c3.815,2.046,5.217,6.807,6.994,12.835      c2.81,9.527,6.655,22.577,21.392,28.562c19.88,8.079,40.699,9.379,54.738,9.068c0.031,0,0.062,0,0.09,0      c2.163,0,3.939,1.73,3.99,3.904c0.051,2.197-1.695,4.029-3.9,4.076c-14.745,0.288-36.771-1.068-57.918-9.652      c-18.307-7.435-22.963-23.243-26.049-33.702c-0.916-3.109-2.17-7.368-3.133-8.073c-0.066,0.222-24.98,14.522-54.945,62.47      C13.986,285.7,12.685,286.363,11.356,286.363z"/></g></g><g><g><path d="M283.76,406.938c-0.125,0-0.265-0.008-0.405-0.023c-2.183-0.218-3.787-2.174-3.569-4.364      c0.413-4.083,0.405-15.757-4.449-20.753c-2.308-2.368-12.025-5.073-21.428-7.699c-18.921-5.269-42.472-11.838-52.183-25.671      c-1.266-1.8-0.83-4.285,0.975-5.556c1.808-1.271,4.29-0.834,5.556,0.974c8.074,11.495,31.032,17.893,47.795,22.568      c13.541,3.772,21.373,6.087,25.004,9.82c8.308,8.541,6.865,25.241,6.679,27.119C287.516,405.41,285.786,406.938,283.76,406.938z      "/></g></g><g><g><path d="M283.76,422.858c-2.205,0-3.99-1.784-3.99-3.989v-15.921c0-2.206,1.785-3.99,3.99-3.99s3.99,1.784,3.99,3.99v15.921      C287.75,421.074,285.965,422.858,283.76,422.858z"/></g></g><g><g><path d="M204.991,350.126c-1.095,0-2.19-0.452-2.977-1.332c-36.195-40.603-42.761-92.302-43.022-94.484      c-0.261-2.186,1.298-4.173,3.483-4.434c2.202-0.265,4.178,1.297,4.442,3.479c0.059,0.511,6.573,51.447,41.05,90.131      c1.469,1.645,1.325,4.161-0.323,5.627C206.884,349.791,205.938,350.126,204.991,350.126z"/></g></g><g><g><path d="M181.732,257.825h-18.777c-2.205,0-3.99-1.786-3.99-3.991c0-2.206,1.785-3.99,3.99-3.99h18.777      c2.206,0,3.99,1.785,3.99,3.99C185.722,256.04,183.938,257.825,181.732,257.825z"/></g></g><g><g><path d="M204.995,350.126c-1.465,0-2.872-0.803-3.573-2.205c-18.906-37.812-23.48-91.496-23.667-93.759      c-0.179-2.198,1.458-4.123,3.651-4.306c2.24-0.102,4.126,1.453,4.306,3.651c0.043,0.541,4.645,54.435,22.85,90.844      c0.985,1.972,0.187,4.372-1.785,5.354C206.203,349.993,205.594,350.126,204.995,350.126z"/></g></g><g><g><path d="M171.617,326.988c-1.449,0-2.849-0.787-3.558-2.174c-1.001-1.956-0.226-4.364,1.738-5.37l12.355-6.32      c1.952-1.005,4.36-0.233,5.37,1.738c1.001,1.964,0.226,4.364-1.738,5.369l-12.356,6.32      C172.848,326.849,172.229,326.988,171.617,326.988z"/></g></g><g><g><path d="M158.665,301.107c-1.449,0-2.849-0.787-3.558-2.174c-1.001-1.956-0.226-4.364,1.738-5.37l13.56-6.936      c1.952-0.997,4.356-0.226,5.37,1.738c1.001,1.964,0.226,4.363-1.738,5.369l-13.56,6.936      C159.896,300.968,159.276,301.107,158.665,301.107z"/></g></g></g><g><g><path d="M175.47,247.475c-0.818,0-1.64-0.249-2.35-0.768c-1.78-1.302-2.166-3.799-0.869-5.576l4.13-5.649     c1.305-1.789,3.803-2.171,5.576-0.869c1.78,1.301,2.166,3.799,0.869,5.576l-4.13,5.65     C177.914,246.91,176.702,247.475,175.47,247.475z"/></g></g><g><g><path d="M81.587,222.436c-0.814,0-1.641-0.25-2.35-0.768c-1.781-1.302-2.167-3.795-0.869-5.576l22.834-31.25     c1.297-1.781,3.795-2.171,5.576-0.869s2.167,3.795,0.869,5.576l-22.833,31.25C84.03,221.871,82.818,222.436,81.587,222.436z"/></g></g><g><g><path d="M95.065,184.889c-0.814,0-1.64-0.25-2.35-0.768c-1.78-1.302-2.166-3.8-0.869-5.576l73.181-100.149     c1.301-1.78,3.795-2.17,5.576-0.869c1.78,1.301,2.166,3.799,0.869,5.576L98.292,183.252     C97.508,184.324,96.296,184.889,95.065,184.889z"/></g></g><g><g><path d="M187.986,247.475c-0.814,0-1.64-0.249-2.35-0.768c-1.78-1.302-2.166-3.799-0.869-5.576l73.189-100.148     c1.297-1.781,3.795-2.175,5.576-0.869c1.78,1.301,2.162,3.799,0.868,5.576l-73.189,100.148     C190.429,246.91,189.217,247.475,187.986,247.475z"/></g></g><g><g><path d="M187.986,247.475c-0.768,0-1.543-0.218-2.225-0.682L92.84,184.207c-1.827-1.231-2.311-3.709-1.079-5.537     c1.231-1.832,3.721-2.322,5.537-1.08l92.92,62.587c1.828,1.231,2.311,3.709,1.08,5.537     C190.531,246.859,189.268,247.475,187.986,247.475z"/></g></g><g><g><path d="M132.308,435.242H4.626c-2.205,0-3.99-1.784-3.99-3.99c0-2.205,1.785-3.989,3.99-3.989h127.682     c2.206,0,3.99,1.784,3.99,3.989C136.298,433.458,134.514,435.242,132.308,435.242z"/></g></g></g><text x="0" y="527" fill="#000000" font-size="5px" font-weight="bold" font-family="'Helvetica Neue', Helvetica, Arial-Unicode, Arial, Sans-serif">Created by lastspark</text><text x="0" y="532" fill="#000000" font-size="5px" font-weight="bold" font-family="'Helvetica Neue', Helvetica, Arial-Unicode, Arial, Sans-serif">from the Noun Project</text></svg>