<?xml version="1.0" encoding="iso-8859-1"?>
<!-- Uploaded to: SVG Repo, www.svgrepo.com, Generator: SVG Repo Mixer Tools -->
<svg fill="#000000" height="800px" width="800px" version="1.1" id="Layer_1" xmlns="http://www.w3.org/2000/svg" xmlns:xlink="http://www.w3.org/1999/xlink" 
	 viewBox="0 0 511.996 511.996" xml:space="preserve">
<g>
	<g>
		<path d="M446.189,160.963c-5.015-6.164-10.198-12.537-11.877-17.706c-1.826-5.625-1.398-14.14-0.984-22.374
			c0.711-14.126,1.518-30.138-7.769-42.899c-9.372-12.879-24.933-17.054-38.663-20.738c-7.892-2.119-16.054-4.309-20.717-7.703
			c-4.551-3.314-9.088-10.326-13.477-17.108C344.927,20.419,336.115,6.8,320.773,1.817c-14.785-4.797-29.623,0.866-42.715,5.862
			c-7.827,2.987-15.923,6.076-22.061,6.076c-6.139,0-14.234-3.088-22.061-6.076c-13.095-4.997-27.938-10.66-42.715-5.86
			c-15.343,4.983-24.156,18.601-31.93,30.618c-4.388,6.781-8.925,13.795-13.474,17.105c-4.664,3.395-12.827,5.585-20.719,7.704
			c-13.729,3.685-29.289,7.86-38.661,20.737c-9.289,12.763-8.483,28.774-7.772,42.904c0.415,8.233,0.843,16.748-0.983,22.374
			c-1.679,5.166-6.862,11.539-11.876,17.701c-9.092,11.177-19.398,23.844-19.398,40.236s10.305,29.06,19.398,40.236
			c5.013,6.162,10.197,12.536,11.876,17.703c1.826,5.625,1.398,14.14,0.984,22.374c-0.711,14.126-1.518,30.139,7.769,42.899
			c9.372,12.879,24.933,17.054,38.663,20.738c7.892,2.119,16.054,4.309,20.717,7.703c4.551,3.314,9.088,10.326,13.477,17.108
			c0.695,1.073,1.402,2.162,2.116,3.254v124.941c0,4.626,2.31,8.946,6.158,11.512c3.846,2.568,8.72,3.044,12.994,1.269
			l75.439-31.343l75.438,31.343c1.708,0.71,3.513,1.06,5.309,1.06c2.696,0,5.376-0.788,7.685-2.329
			c3.848-2.566,6.158-6.887,6.158-11.512V373.216c0.716-1.093,1.423-2.181,2.118-3.255c4.388-6.782,8.925-13.797,13.474-17.106
			c4.664-3.395,12.827-5.585,20.719-7.704c13.729-3.685,29.289-7.86,38.661-20.737c9.289-12.763,8.483-28.776,7.772-42.903
			c-0.415-8.233-0.843-16.748,0.983-22.374c1.679-5.166,6.862-11.539,11.877-17.701c9.091-11.177,19.397-23.844,19.397-40.235
			S455.282,172.14,446.189,160.963z M322.902,477.417l-61.596-25.591c-3.401-1.413-7.221-1.413-10.622,0l-61.597,25.592v-77.623
			c0.7,0.274,1.401,0.548,2.13,0.785c3.952,1.283,7.907,1.817,11.833,1.817c10.757-0.001,21.291-4.019,30.884-7.68
			c7.827-2.987,15.923-6.076,22.061-6.076c6.139,0,14.234,3.088,22.063,6.076c13.092,4.997,27.931,10.659,42.715,5.86
			c0.728-0.237,1.428-0.511,2.129-0.785V477.417z M424.716,223.964c-6.616,8.133-13.459,16.543-16.733,26.623
			c-3.399,10.475-2.842,21.577-2.3,32.315c0.502,10.014,1.024,20.37-2.508,25.223c-3.614,4.966-13.699,7.674-23.454,10.291
			c-10.331,2.774-21.014,5.64-29.832,12.058c-8.707,6.338-14.666,15.545-20.428,24.45c-5.53,8.546-11.246,17.382-17.236,19.328
			c-5.485,1.779-15.051-1.866-24.298-5.395c-10.172-3.882-20.69-7.895-31.932-7.895c-11.242,0-21.761,4.013-31.932,7.895
			c-9.246,3.529-18.807,7.174-24.297,5.395c-4.143-1.347-8.155-5.989-12.065-11.55c-0.598-1.239-1.372-2.37-2.293-3.369
			c-0.965-1.453-1.924-2.934-2.878-4.407c-5.762-8.907-11.722-18.114-20.431-24.453c-8.817-6.417-19.499-9.283-29.831-12.057
			c-9.755-2.617-19.84-5.325-23.455-10.292c-3.531-4.851-3.009-15.205-2.505-25.22c0.541-10.738,1.099-21.84-2.303-32.315
			c-3.272-10.081-10.114-18.489-16.731-26.624c-6.485-7.97-13.188-16.212-13.188-22.766s6.705-14.796,13.188-22.766
			c6.617-8.134,13.459-16.543,16.733-26.623c3.399-10.475,2.842-21.577,2.3-32.315c-0.502-10.014-1.024-20.37,2.508-25.223
			c3.614-4.966,13.699-7.674,23.454-10.292c10.331-2.772,21.014-5.639,29.832-12.057c8.707-6.336,14.666-15.545,20.428-24.45
			c5.528-8.546,11.246-17.382,17.238-19.326c0.992-0.321,2.118-0.466,3.351-0.466c5.585,0,13.372,2.97,20.947,5.86
			c10.172,3.882,20.688,7.895,31.93,7.895c11.242,0,21.761-4.013,31.932-7.895c9.247-3.528,18.812-7.174,24.297-5.395
			c5.99,1.946,11.708,10.782,17.236,19.326c5.762,8.907,11.722,18.114,20.431,24.453c8.817,6.417,19.499,9.283,29.83,12.056
			c9.755,2.619,19.84,5.326,23.455,10.294c3.531,4.851,3.009,15.205,2.505,25.22c-0.541,10.738-1.099,21.84,2.302,32.315
			c3.273,10.081,10.116,18.49,16.733,26.625c6.485,7.97,13.188,16.212,13.188,22.766S431.199,215.994,424.716,223.964z"/>
	</g>
</g>
<g>
	<g>
		<path d="M254.345,64.382c-7.643,0-13.841,6.198-13.841,13.841v0.011c0,7.643,6.197,13.836,13.841,13.836
			c7.643,0,13.841-6.202,13.841-13.847S261.988,64.382,254.345,64.382z"/>
	</g>
</g>
<g>
	<g>
		<path d="M378.97,187.358c-7.643,0-13.841,6.198-13.841,13.841c0,60.177-48.956,109.133-109.133,109.133
			S146.862,261.377,146.862,201.2c0-42.019,24.561-80.774,62.576-98.737c1.352-0.639,2.734-1.257,4.107-1.835
			c7.042-2.97,10.345-11.09,7.373-18.133c-2.97-7.041-11.08-10.345-18.133-7.373c-1.73,0.729-3.473,1.509-5.175,2.314
			c-47.644,22.513-78.43,71.092-78.43,123.765c0,75.44,61.376,136.816,136.816,136.816S392.811,276.639,392.811,201.2
			C392.811,193.555,386.613,187.358,378.97,187.358z"/>
	</g>
</g>
<g>
	<g>
		<path d="M334.014,180.926c-1.361-25.45-21.977-45.385-46.931-45.385c-12.756,0-23.45,6.461-30.931,12.885
			c-7.393-6.45-18.071-12.885-31.249-12.885c-24.953,0.001-45.566,19.938-46.928,45.389c-0.815,15.282,5.024,26.055,9.487,32.828
			c5.938,9.012,20.179,22.254,31.525,31.641c25.93,21.454,33.454,21.454,37.069,21.454c3.657,0,11.265,0,37.068-21.425
			c11.263-9.35,25.428-22.582,31.414-31.685C328.996,206.96,334.832,196.178,334.014,180.926z M301.408,198.539
			c-6.764,10.287-34.626,33.919-45.312,39.821c-10.671-5.968-38.988-29.919-45.519-39.831c-3.824-5.805-5.261-10.476-4.961-16.122
			c0.566-10.577,9.218-19.181,19.289-19.181c8.613,0,17.257,9.849,19.562,13.236c2.529,3.809,6.774,6.123,11.344,6.186
			c4.624,0.042,8.878-2.137,11.506-5.874c2.987-4.244,12.11-13.546,19.767-13.546c10.069,0,18.723,8.605,19.29,19.182
			C306.676,188.042,305.237,192.715,301.408,198.539z"/>
	</g>
</g>
</svg>